<?xml version="1.0" standalone="no"?><!DOCTYPE svg PUBLIC "-//W3C//DTD SVG 1.1//EN" "http://www.w3.org/Graphics/SVG/1.1/DTD/svg11.dtd"><svg t="1500797972712" class="icon" style="" viewBox="0 0 1024 1024" version="1.1" xmlns="http://www.w3.org/2000/svg" p-id="2492" xmlns:xlink="http://www.w3.org/1999/xlink" width="200" height="200"><defs><style type="text/css"></style></defs><path d="M388.352 830.016a198.4 198.4 0 0 1-39.936 86.656h449.536a124.16 124.16 0 0 0 87.04-36.736l1.536-1.28c12.992-13.76 23.232-30.4 28.992-48.64H388.352zM346.688 555.52c-23.808-85.184 22.912-190.016 87.04-246.016a22.912 22.912 0 0 1 31.616 2.176c3.776 4.48 5.568 9.984 5.312 15.296v12.16c9.024-15.04 19.328-28.288 31.488-40.448 36.096-36.672 85.76-62.08 132.48-66.752a21.44 21.44 0 0 1 24.256 20.032 19.008 19.008 0 0 1-4.736 15.872 450.752 450.752 0 0 0-18.496 25.344 398.72 398.72 0 0 1 106.88-34.816V108.16h-640v684.672c0 31.616 12.416 60.864 32.512 82.88 45.376 50.112 105.536 49.6 150.656-0.512a122.88 122.88 0 0 0 31.936-81.6v-0.768c0-20.608 16.896-37.248 36.992-37.248h387.968V532.288c-39.552 31.104-88.64 49.088-172.032 25.088 6.976 5.824 16.256 12.672 28.352 20.352a22.144 22.144 0 0 1 7.424 30.656 24.704 24.704 0 0 1-14.208 9.984c-62.4 16.128-163.648 12.608-218.56-28.224-10.048 8.192-25.344 25.6-31.68 56.512-5.76 28.224-49.344 17.152-43.584-9.728a145.408 145.408 0 0 1 48.384-81.408z m470.272-301.696c75.008 6.4 139.968 45.696 148.864 133.632a22.528 22.528 0 0 1-20.032 24.192h-2.112c-58.56 0-96 22.976-126.656 50.432v293.504h141.44c20.608 0 37.248 16.64 37.248 37.248 0 53.504-21.376 101.888-56.192 137.472l-1.792 2.368a196.608 196.608 0 0 1-139.648 57.728H212.032c-48.512 0-100.288-29.504-131.968-64.64a197.504 197.504 0 0 1-51.712-132.992V70.976c0-20.544 16.384-37.504 36.928-37.504h714.496c20.608 0 37.184 16.96 37.184 37.504v182.848zM389.376 542.336c19.52 38.016 106.944 39.872 143.296 39.04-14.976-16.576-21.888-31.36-24.576-43.2-3.584-17.216 0.832-51.2 30.144-39.168 126.72 52.032 171.008 7.168 219.072-41.152 39.552-39.808 81.088-81.792 159.424-89.472-38.016-130.112-268.416-56.448-323.072 11.392a21.504 21.504 0 0 1-24.32 8.96 22.08 22.08 0 0 1-16-27.2s9.664-30.656 30.592-68.352a206.72 206.72 0 0 0-50.176 36.736c-26.112 26.368-43.84 60.416-43.584 94.72v-0.256a21.888 21.888 0 0 1-15.296 21.376 22.08 22.08 0 0 1-28.032-14.016c-5.76-17.152-12.608-34.048-16.896-51.712-31.104 44.352-55.552 107.712-40.576 162.304z" fill="#231815" p-id="2493"></path></svg>